Patient4_TMGait_0pt3_03_left_13_EMG.mot
version=1
nRows=13
nColumns=33
inDegrees=no
endheader
time	1LAddLong	2LGlutMax	3LGlutMed	4LIliopsoas	5LSemiMemb	6LBicFemLong	7LRecFem	8LVastMed	9LVastLat	10LGasMed	11LTibAnt	12lTibPost	13LPeroneusLong	14LSol	15LExtDigLong	16LFlexDigLong	17RAddLong	18RGlutMax	19RGlutMed	20RIliopsoas	21RSemiMemb	22RBicFemLong	23RRecFem	24RVastMed	25RVastLat	26RGasMed	27RTibAnt	28RTibPost	29RPeroneusLong	30RSol	31RExtDigLong	32RFlexDigLong
24.315	-0.00946	0.068207	-0.03479	0.002747	0.00061	-0.055695	0.03006	0.016937	0.013428	0.036774	0.007019	-0.015717	0.12009	-0.28198	-0.024414	-0.002136	0.00946	-0.13596	-0.025177	-0.056915	0.003204	0.040588	-0.10117	-0.00885	-0.000458	-0.002289	0.024261	0.082703	0.063782	0.065308	-0.001221	-0.019836
24.316	0.003662	0.095062	0.01297	-0.00824	-0.040588	-0.042267	0.04776	0.024872	0.011292	0.15961	0.009308	-0.001068	0.25467	-0.18646	0.031586	-0.009918	0.009155	-0.09903	0.02243	-0.045319	0.006409	0.018005	-0.1149	0.013733	0.001831	0.00061	-0.002747	0.000763	0.021515	0.040131	-0.004272	-0.011902
24.317	0.003967	0.046844	-0.012665	-0.003052	-0.026703	-0.020905	0.049591	0.020447	0.007782	-0.13962	0.00412	-0.003357	0.041656	0.078735	0.067749	-0.004883	-0.002594	-0.12497	-0.044098	0.017242	0.008698	0.009918	-0.088196	-0.02655	-0.003357	0.009308	-0.005646	-0.012512	-0.019226	-0.086212	-0.011444	-0.014801
24.318	-0.002289	0.030212	0.031128	0.001831	-0.012207	0.062561	0.044861	0.028992	0.007019	-0.21301	-0.000763	0.002899	0.005035	0.15121	0.056915	0.000153	0.000458	-0.16342	-0.037842	0.036163	0.013733	-0.011902	-0.088043	-0.004425	-0.006104	-0.001678	-0.003052	-0.014648	-0.005951	-0.023956	-0.001221	-0.003815
24.319	0.000916	-0.000763	0.026093	-0.003357	0.067444	-0.020294	0.043488	0.044098	0.12054	-0.21469	-0.00824	0.016632	0.18356	0.15549	-0.009155	0.00351	0.002594	-0.20462	-0.057678	0.0383	0.001526	-0.006866	-0.070343	-0.016022	0.018616	0.001221	0.006256	-0.006256	-0.01236	0.13901	-0.004578	0.001526
24.32	-0.01236	-0.00412	0.042877	-0.002747	0.077057	0.099487	0.038757	0.040131	0.13825	-0.08316	-0.011444	0.011292	0.36865	0.09552	-0.050964	-0.003357	0.005035	-0.22842	-0.026093	-0.009766	-0.013275	0.023041	-0.069122	-0.041046	0.015717	0.006714	0.009155	-0.015869	0.068359	0.14786	-0.003967	-0.002899
24.321	-0.02243	0.015869	0.077057	-0.009003	0.040588	0.15213	0.037537	0.032959	0.062714	0.10071	0.015717	0.005188	-0.54581	0.068359	-0.019531	-0.005798	0.002747	-0.23865	-0.008392	-0.015106	0.002899	0.055695	-0.048676	0.023804	0.039825	0.004578	0.005035	-0.018768	0.19974	0.12878	0.000458	-0.006714
24.322	-0.003662	0.022583	0.015564	-0.026703	0.00946	0.15243	-0.001678	0.009766	0.097351	-0.034637	-0.002441	-0.004425	-0.66513	0.14282	-0.00061	0.000458	0.002747	-0.21408	0.053558	-0.048676	0.000458	0.062103	-0.058441	0.020142	0.036469	0.002899	0.030518	-0.020294	0.16708	0.13977	-0.004272	-0.005646
24.323	0.010681	0.069122	-0.026093	-0.016174	-0.005951	0.14801	0.003815	0.017242	0.063934	-0.076599	0.020447	-0.009003	-0.074463	0.099182	-0.041351	-0.007019	0.016022	-0.18234	0.036774	-0.033264	0.015869	0.03952	-0.062103	0.022736	0.013885	0.006256	0.037689	-0.010071	0.039978	-0.042114	-0.00412	-0.005341
24.324	0.00351	0.039368	-0.026245	-0.002899	0.012512	0.15701	0.010071	0.013428	0.016479	0.067902	0.002899	-0.005035	0.11673	0.008392	-0.11658	-0.002289	0.004883	-0.18295	0.00412	-0.001526	0.041046	0.044708	-0.11902	0.039673	0.009918	0.011292	0.030823	-0.018158	-0.18845	-0.1239	0.001678	-0.002136
24.325	0.007172	0.016937	0.048523	0.00946	0.044708	0.21133	0.018921	0.011749	-0.050964	0.46097	0.005951	-0.010986	-0.2887	-0.049133	-0.055084	-0.00412	0.01358	-0.20523	-0.03006	0.062408	0.047913	0.013123	-0.12085	0.001221	0.006866	0.010529	0.001984	-0.023499	-0.20233	-0.18005	-0.003357	-0.006561
24.326	0.012207	-0.049438	0.041962	-0.009613	0.028992	0.19516	0.029449	0.016479	-0.062866	0.15182	0.002289	-0.012665	-0.034485	-0.080109	0.061798	0.001984	0.00061	-0.20538	-0.069427	0.090485	0.033417	-0.003052	-0.06073	-0.002747	-0.006409	0.006104	-0.020905	-0.00946	-0.11444	-0.2063	0.000763	-0.007477
24.327	-0.005493	-0.084534	0.059814	-0.010834	0.008087	0.14954	0.076141	0.012054	0.024719	-0.20889	-0.007172	-0.015411	0.058899	-0.097504	0.12116	0.000305	0.00885	-0.21423	-0.11368	0.1001	-0.000458	-0.00351	-0.024109	-0.003815	0.014496	-0.000305	-0.031738	-0.033875	0.19424	-0.40695	-0.009918	-0.007935
